<?xml version="1.0" standalone="no"?>
<!DOCTYPE svg PUBLIC "-//W3C//DTD SVG 20010904//EN"
 "http://www.w3.org/TR/2001/REC-SVG-20010904/DTD/svg10.dtd">
<svg version="1.0" xmlns="http://www.w3.org/2000/svg"
 width="219.000000pt" height="219.000000pt" viewBox="0 0 219.000000 219.000000"
 preserveAspectRatio="xMidYMid meet">
<metadata>
Created by potrace 1.14, written by Peter Selinger 2001-2017
</metadata>
<g transform="translate(0.000000,219.000000) scale(0.100000,-0.100000)"
fill="#000000" stroke="none">
<path d="M0 1095 l0 -1095 1095 0 1095 0 0 1095 0 1095 -1095 0 -1095 0 0
-1095z m440 475 c26 -26 25 -44 -5 -125 -44 -116 -57 -198 -58 -355 0 -157 15
-252 59 -368 28 -76 30 -99 7 -124 -24 -27 -68 -23 -93 9 -34 43 -77 142 -101
233 -20 72 -23 109 -23 245 1 183 17 262 81 398 50 106 89 131 133 87z m1351
10 c26 -14 60 -70 92 -152 89 -223 82 -518 -18 -734 -50 -109 -92 -138 -137
-97 -25 22 -23 47 11 150 39 116 51 193 51 338 0 145 -12 223 -51 336 -35 104
-36 133 -7 153 26 19 33 19 59 6z"/>
</g>
</svg>
